inDegrees=yes
name=ik_S50_A10_T02
DataType=double
version=3
OpenSimVersion=4.3-2021-08-27-4bc7ad9
endheader
time	pelvis_tilt	pelvis_list	pelvis_rotation	pelvis_tx	pelvis_ty	pelvis_tz	hip_flexion_r	hip_adduction_r	hip_rotation_r	knee_angle_r	knee_angle_r_beta	ankle_angle_r	subtalar_angle_r	mtp_angle_r	hip_flexion_l	hip_adduction_l	hip_rotation_l	knee_angle_l	knee_angle_l_beta	ankle_angle_l	subtalar_angle_l	mtp_angle_l	lumbar_extension	lumbar_bending	lumbar_rotation	arm_flex_r	arm_add_r	arm_rot_r	elbow_flex_r	pro_sup_r	wrist_flex_r	wrist_dev_r	arm_flex_l	arm_add_l	arm_rot_l	elbow_flex_l	pro_sup_l	wrist_flex_l	wrist_dev_l
6.119999999999957	0.6597908202023722	0.874881525792107	30.92519121106998	0	0.9399999999999999	0	39.95675171492235	-9.946247134127773	-9.783143070673232	47.24361064780996	0.824556556334535	0	0	0	39.95675171492235	-9.946247134127773	-9.783143070673232	47.24361064780996	0.824556556334535	0	0	0	1.298494494326112	0.08990210938778766	1.848181429205099	87.20529317035704	-7.843458502680564	16.11773379484994	87.11765734431754	-7.941087779045878	0	0	89.10436089964654	-2.111269843221354	8.20656626199577	49.4692922019324	74.42199107948666	0	0
6.139999999999957	0.628351003403651	0.8566744469315236	30.96269672724331	0	0.9399999999999999	0	39.95811807011601	-9.94629771772399	-9.783274025384195	47.24503278082111	0.8245813772379809	0	0	0	39.95811807011601	-9.94629771772399	-9.783274025384195	47.24503278082111	0.8245813772379809	0	0	0	1.262074515070743	0.09038595170497522	1.832198387795251	87.01325261229887	-7.79119729592405	16.26758662351951	87.20544939566918	-7.929070176163418	0	0	88.98103492031846	-2.176238304851532	7.845785432101554	49.34850494286748	74.6408894137971	0	0
6.159999999999957	0.4995803279096162	0.7365303673083804	31.0071571531341	0	0.9399999999999999	0	39.95953255783724	-9.946349966810056	-9.78340940715106	47.2465073891801	0.8246071140090225	0	0	0	39.95953255783724	-9.946349966810056	-9.78340940715106	47.2465073891801	0.8246071140090225	0	0	0	1.09030392795614	0.05245306148374778	1.776702798436822	86.85719766385976	-7.50211395198663	15.82966150805833	87.22730668696902	-8.108962284676679	0	0	89.09909519811394	-2.215696751888818	7.48836560096937	49.23881992707502	74.86463020994478	0	0
6.179999999999956	0.4302702802111236	0.6812893392898214	31.03743768909556	0	0.9399999999999999	0	39.96132110045713	-9.946416007143815	-9.783580565547568	47.24837158962436	0.8246396504446921	0	0	0	39.96132110045713	-9.946416007143815	-9.783580565547568	47.24837158962436	0.8246396504446921	0	0	0	1.002588649720791	0.0403147521112257	1.751261848781092	86.69940071392875	-7.376835488948458	15.49935206903188	87.30054868980214	-8.081056718888579	0	0	89.0161611762327	-2.206826497624491	7.127011852651355	49.098515509117	74.98403749458808	0	0
6.199999999999956	0.3963805889555318	0.6496161066741283	31.06400902532954	0	0.9399999999999999	0	39.96266317538783	-9.946465477239743	-9.783708871935238	47.24977166757427	0.8246640864147027	0	0	0	39.96266317538783	-9.946465477239743	-9.783708871935238	47.24977166757427	0.8246640864147027	0	0	0	0.9573447969236031	0.03021369462348985	1.731222452529172	86.41494513211029	-7.216766484079582	15.26348519753879	87.2792166512923	-8.243740117289756	0	0	88.81067026395836	-2.165151403999747	6.880751687190291	48.98225694235627	74.99435480518089	0	0
6.219999999999955	0.3275537307161481	0.5868044736136522	31.09455085726941	0	0.9399999999999999	0	39.96404767215193	-9.94651654531688	-9.783841313006189	47.25121399804544	0.8246892598303264	0	0	0	39.96404767215193	-9.94651654531688	-9.783841313006189	47.25121399804544	0.8246892598303264	0	0	0	0.866306097879716	0.0110403245873267	1.704298510815183	86.14640291350803	-6.932132920039754	15.09247224664829	87.06264073409466	-8.928885932994033	0	0	88.24881029101188	-2.044105994259999	6.608654341359657	48.80544463360341	74.96877305069982	0	0
6.239999999999955	0.262769580208543	0.5290911163139859	31.14073557077866	0	0.9399999999999999	0	39.96543488277516	-9.946567652014988	-9.783973917651281	47.25266029567537	0.8247145024859325	0	0	0	39.96543488277516	-9.946567652014988	-9.783973917651281	47.25266029567537	0.8247145024859325	0	0	0	0.7811074629861045	-0.005199473326433721	1.681592257233975	85.86047423180375	-6.72753672080527	14.87134469926395	87.03019908552709	-9.132928406305858	0	0	88.40964464142729	-1.997865120173514	6.627971878680396	48.43993623711826	74.79893255668873	0	0
6.259999999999954	0.1963020802444332	0.4749722724885009	31.17217933132457	0	0.9399999999999999	0	39.96670880316442	-9.946614560006637	-9.78409566501594	47.25398833507569	0.8247376811460643	0	0	0	39.96670880316442	-9.946614560006637	-9.78409566501594	47.25398833507569	0.8247376811460643	0	0	0	0.6962430936669521	-0.01722041294174828	1.668484925761006	85.55052723733493	-6.547170593260724	14.71031146596248	86.99165820620259	-9.30875442553209	0	0	88.15940503793774	-1.922387107673537	6.49441887151233	48.70823296238211	75.03481148556287	0	0
6.279999999999954	0.118683696410387	0.4186501326323292	31.20555732175631	0	0.9399999999999999	0	39.9674366416049	-9.9466411891599	-9.784164939193525	47.25475116388389	0.8247509950203964	0	0	0	39.9674366416049	-9.9466411891599	-9.784164939193525	47.25475116388389	0.8247509950203964	0	0	0	0.6006653035026811	-0.02522849225377307	1.672122948897429	85.2158505962461	-6.431114170552392	14.58483078399635	87.09498608590825	-9.301605045198656	0	0	87.89767056721858	-1.823560016095268	6.335892235557867	48.67259544120676	75.04019058940311	0	0
6.299999999999954	0.07859405299996845	0.3750269559947115	31.24239869337339	0	0.9399999999999999	0	39.96820609106383	-9.946669305677533	-9.784238117049433	47.25555835664264	0.8247650831917348	0	0	0	39.96820609106383	-9.946669305677533	-9.784238117049433	47.25555835664264	0.8247650831917348	0	0	0	0.5437068521207836	-0.04168482299190872	1.676113433407949	85.2294430795325	-6.338093444468602	14.61023926226996	87.01303585003818	-9.611427128392622	0	0	87.49328986400519	-1.694707785951441	6.189030673561636	48.59345111957982	75.10561809385882	0	0
6.319999999999953	0.06003638596294976	0.3654281867392679	31.27843435620105	0	0.9399999999999999	0	39.96981027703358	-9.946728339982142	-9.784391409216758	47.25722940736937	0.8247942485288842	0	0	0	39.96981027703358	-9.946728339982142	-9.784391409216758	47.25722940736937	0.8247942485288842	0	0	0	0.5229256052404154	-0.04048259589374394	1.662299586198032	84.6071532825344	-6.149998153756937	14.59830633153072	87.19408734873335	-9.660877121610502	0	0	86.94917269183763	-1.535926494217643	5.970381101055812	48.4611215890367	75.34522786211775	0	0
6.339999999999953	0.002837559050018446	0.3202398395991475	31.29140237733534	0	0.9399999999999999	0	39.97087408871035	-9.94676728027081	-9.784492714101896	47.25834274022915	0.8248136798529581	0	0	0	39.97087408871035	-9.94676728027081	-9.784492714101896	47.25834274022915	0.8248136798529581	0	0	0	0.450476154088487	-0.049232246856344	1.671476647950941	84.70684547699634	-6.076449767298957	14.71389673755995	87.22054242102602	-9.749485873678179	0	0	86.44322909590035	-1.329397746249084	5.80909746247207	48.33924672072393	75.55192976920839	0	0
6.359999999999952	-0.07878591360726639	0.2565227545847394	31.35265321794891	0	0.9399999999999999	0	39.97286094198782	-9.946840367874922	-9.784682569122108	47.26041072730163	0.8248497730362615	0	0	0	39.97286094198782	-9.946840367874922	-9.784682569122108	47.26041072730163	0.8248497730362615	0	0	0	0.3471440973559365	-0.06003359159102722	1.671262548050387	83.47948110101261	-5.979020898158149	14.5644193613087	88.35415975684838	-9.697343439520516	0	0	85.94779214499067	-1.039815351585175	5.711259141401382	48.04039153901827	75.93789911711812	0	0
6.379999999999952	-0.1070884204450965	0.2367312165020779	31.38566871691527	0	0.9399999999999999	0	39.99261063387171	-9.947359335791264	-9.786209809575828	47.28672301164259	0.825309009031732	0	0	0	39.99261063387171	-9.947359335791264	-9.786209809575828	47.28672301164259	0.825309009031732	0	0	0	0.3122285737618706	-0.06365765142922233	1.691713407421926	81.88507168207981	-6.106397802009857	14.59948074421817	89.82388772076192	-9.651224355800485	0	0	85.26616913699559	-0.7485261832866834	5.740308553966535	47.6852027866135	76.30057389216917	0	0
6.399999999999952	-0.1096184915146317	0.2352264751064802	31.45448127555964	0	0.9399999999999999	0	39.99477646194219	-9.947438404695648	-9.786415905177966	47.28898059697321	0.8253484113288961	0	0	0	39.99477646194219	-9.947438404695648	-9.786415905177966	47.28898059697321	0.8253484113288961	0	0	0	0.3092835841840372	-0.06440986673918814	1.645071588633701	80.91664422245303	-6.080822536350087	15.24254246266029	91.40883557555605	-9.789313221288907	0	0	84.37761982257524	-0.5281337261234877	6.016869652410038	47.33621159003736	77.01170398308746	0	0
6.419999999999951	-0.1343884041638807	0.2320206564518369	31.52477013686984	0	0.9399999999999999	0	39.99737595102714	-9.947533306160745	-9.78666331171903	47.29168787311428	0.8253956622113185	0	0	0	39.99737595102714	-9.947533306160745	-9.78666331171903	47.29168787311428	0.8253956622113185	0	0	0	0.2862441005799059	-0.05454429873335533	1.621900331713219	79.9340637167904	-6.121174613248265	16.03901994542224	92.3513473648804	-9.777342884008055	0	0	83.33016519497141	-0.2221276592968496	6.614497657462392	46.66496122492941	78.43519007165014	0	0
6.439999999999951	-0.1464972678359822	0.2428663100797774	31.55318188159639	0	0.9399999999999999	0	40.02600837561354	-9.948262807499701	-9.788838470208956	47.33035058343522	0.8260704538041637	0	0	0	40.02600837561354	-9.948262807499701	-9.788838470208956	47.33035058343522	0.8260704538041637	0	0	0	0.2799784883286903	-0.03793415093105178	1.648408766904946	78.52701404258273	-5.557869418095495	16.77800706826031	91.61814115429272	-9.882242253305193	0	0	81.91597778400173	0.1994031330582337	7.216461310575288	46.70843120497973	75.15503589268641	0	0
6.45999999999995	-0.1562805062219692	0.2511682361308304	31.60672390399248	0	0.9399999999999999	0	40.04915476213002	-9.948866879692023	-9.790622392725938	47.36110420863291	0.8266072058207877	0	0	0	40.04915476213002	-9.948866879692023	-9.790622392725938	47.36110420863291	0.8266072058207877	0	0	0	0.2749866047790823	-0.02337639787222541	1.643664566730735	77.1273287231155	-5.389097771134501	17.49829708368832	91.05046811496692	-9.805620464435203	0	0	80.55093581554263	0.43818835817617	7.198438111558499	46.04228312708854	76.84525086344877	0	0
6.47999999999995	-0.1589990277523737	0.2549766957776051	31.653892354104	0	0.9399999999999999	0	40.05062650523659	-9.948919512764743	-9.790760847828231	47.36264528555032	0.826634102687023	0	0	0	40.05062650523659	-9.948919512764743	-9.790760847828231	47.36264528555032	0.826634102687023	0	0	0	0.2749289742952162	-0.01950589593901044	1.633022942547378	77.0655250163111	-5.349976473271874	17.58690467422178	90.44713349950118	-9.807854970588492	0	0	79.44305841893809	0.4768087589862075	6.845010414471298	45.20167723218036	76.38799150623849	0	0
6.499999999999949	-0.1868962323684131	0.2194083129996058	31.69118026079112	0	0.9399999999999999	0	40.06954173625319	-9.949383564000781	-9.792168091918123	47.38845328946943	0.8270845373287791	0	0	0	40.06954173625319	-9.949383564000781	-9.792168091918123	47.38845328946943	0.8270845373287791	0	0	0	0.2319677548721865	-0.03380068867313121	1.623616965100578	75.89239865638156	-5.095044403059073	17.01716195364109	89.69440875076145	-9.690248640803986	0	0	78.37739423923105	0.3763132878060698	6.219627171705565	44.46569155002568	75.81756942906983	0	0
